<svg xmlns="http://www.w3.org/2000/svg" viewBox="-5.0 -10.0 110.0 135.0"><path d="m81.418 30.469c0.042969 0.18359 0.078125 0.36719 0.10547 0.54688 0.007812 0.042969 0.011718 0.082031 0.011718 0.125 0.054688 0.38672 0.082032 0.76172 0.082032 1.125v37.934c0 2.2617-0.92578 4.3125-2.4102 5.8008-1.4883 1.4883-3.543 2.4102-5.8008 2.4102l-22.199 0.003906 0.40234 5.2734h9.2227c0.86328 0 1.6484 0.35156 2.2188 0.92188 0.57031 0.57031 0.92188 1.3555 0.92188 2.2188v1.8008c0 0.73828-0.60156 1.3398-1.3398 1.3398h-35.992c-0.73828 0-1.3398-0.60156-1.3398-1.3398v-1.8008c0-0.86328 0.35156-1.6484 0.92188-2.2188 0.57031-0.57031 1.3555-0.92188 2.2188-0.92188h9.2227l0.40234-5.2734h-22.199c-2.2617 0-4.3125-0.92578-5.8008-2.4102-1.4883-1.4883-2.4102-3.543-2.4102-5.8008v-3.0547l-0.003906-34.883c0-2.2617 0.92578-4.3164 2.4102-5.8008 1.4883-1.4883 3.543-2.4102 5.8008-2.4102l57.543-0.003907c0.32422 0 0.64844 0.019531 0.97656 0.058594 0.046876 0.003906 0.09375 0.011719 0.14063 0.019531l10.168-11.805c1.5117-1.7578 3.1953-2.4062 4.5742-2.2734 0.67969 0.0625 1.2852 0.30859 1.7852 0.70312 0.5 0.39453 0.87891 0.92969 1.0938 1.5742 0.44141 1.3125 0.19922 3.1016-1.1641 4.9766zm-7.9961-0.96875 3.4258 2.7109 11.969-16.477c0.79688-1.0977 0.99219-1.9922 0.80078-2.5625-0.050782-0.14453-0.12109-0.25391-0.21484-0.32812-0.097656-0.074219-0.22266-0.125-0.37109-0.13672-0.60156-0.054687-1.4297 0.33594-2.3125 1.3633zm1.8555 4.8711-3.5977-2.8477-3.9531 4.5898 3.9922 3.1602zm-2.9922-7.6406h-56.418c-1.5195 0-2.9023 0.62109-3.9102 1.6289-1.0039 1.0039-1.6289 2.3867-1.6289 3.9102v33.539h68.609l0.003906-31.93-5.5742 7.6719c0.57422 1.5898 0.76953 3.3203 0.5625 5.0469-0.25 2.1133-1.0938 4.2305-2.5547 6.0742-2.2031 2.7852-6.7109 3.6484-10.996 4.4688-2.1016 0.40234-4.1484 0.79297-5.6875 1.375v-0.003906c-0.19531 0.074219-0.41406 0.10156-0.63672 0.074219-0.73047-0.09375-1.25-0.76172-1.1562-1.4922 0.21094-1.6367 0.125-3.7188 0.035156-5.8594-0.18359-4.3594-0.375-8.9414 1.8242-11.723 1.4609-1.8438 3.3281-3.1523 5.332-3.8789 1.6367-0.59375 3.3633-0.80469 5.043-0.60937zm-1.7266 15.027-4.9922-3.9531c-1.4844-0.32422-3.0703-0.19922-4.5664 0.34766-1.5586 0.56641-3.0117 1.5859-4.1484 3.0234-1.5859 2-1.4141 6.082-1.25 9.9648 0.0625 1.4766 0.12109 2.9258 0.089844 4.2734 1.3086-0.34375 2.7344-0.61719 4.1875-0.89453 3.8164-0.73047 7.8242-1.5 9.4062-3.4961 1.1367-1.4336 1.793-3.0859 1.9883-4.7344 0.1875-1.5859-0.054688-3.1602-0.71484-4.5312zm-29.395 17.023c2.1016 0 4.0078-0.85156 5.3828-2.2305 1.3789-1.3789 2.2305-3.2812 2.2305-5.3828 0-2.1016-0.85156-4.0078-2.2305-5.3828-1.3789-1.3789-3.2812-2.2305-5.3828-2.2305-2.1016 0-4.0078 0.85156-5.3828 2.2305-1.3789 1.3789-2.2305 3.2812-2.2305 5.3828 0 2.1016 0.85156 4.0078 2.2305 5.3828 1.375 1.3789 3.2773 2.2305 5.3828 2.2305zm7.2773-0.33594c1.8633-1.8633 3.0156-4.4375 3.0156-7.2773 0-2.8398-1.1523-5.4141-3.0156-7.2773-1.5664-1.5664-3.6328-2.6289-5.9414-2.9297v-6.7227c0-0.73828-0.60156-1.3398-1.3398-1.3398h-16.93c-0.73828 0-1.3398 0.60156-1.3398 1.3398v16.93c0 0.73828 0.60156 1.3398 1.3398 1.3398h6.7227c0.30078 2.3047 1.3633 4.375 2.9297 5.9414 1.8633 1.8633 4.4375 3.0156 7.2773 3.0156 2.8438-0.003906 5.418-1.1562 7.2812-3.0195zm-17.484-8.6172c0.30078-2.3086 1.3633-4.375 2.9297-5.9414 1.5664-1.5664 3.6328-2.6289 5.9414-2.9297v-5.3828h-14.258v14.254zm17.566 28.586h-7.7734l-0.40234 5.2734h8.582zm12.312 7.9492h-32.395c-0.125 0-0.24219 0.050781-0.32422 0.13672-0.085938 0.085938-0.13672 0.19922-0.13672 0.32422v0.46094h33.316v-0.46094c0-0.125-0.050781-0.24219-0.13672-0.32422-0.085937-0.082031-0.19922-0.13672-0.32422-0.13672zm-50.504-17.879v1.7148c0 1.5195 0.62109 2.9023 1.6289 3.9102 1.0039 1.0039 2.3867 1.6289 3.9102 1.6289l23.641-0.003906h33.895c1.5195 0 2.9023-0.62109 3.9102-1.6289 1.0039-1.0039 1.6289-2.3867 1.6289-3.9102v-1.7148z" fill-rule="evenodd"></path><text x="0.0" y="117.5" font-size="5.0" font-weight="bold" font-family="Arbeit Regular, Helvetica, Arial-Unicode, Arial, Sans-serif" fill="#000000">Created by Muhammad Febrianto</text><text x="0.0" y="122.5" font-size="5.0" font-weight="bold" font-family="Arbeit Regular, Helvetica, Arial-Unicode, Arial, Sans-serif" fill="#000000">from Noun Project</text></svg>